PathFileType	4	(X/Y/Z)	Kaydara																																																																																																																									
DataRate	CameraRate	NumFrames	NumMarkers	Units	OrigDataRate	OrigDataStartFrame	OrigNumFrames																																																																																																																					
30	30	8	41	mm	30	83	141																																																																																																																					
Frame#	Time	SALE_LFHD			SALE_RFHD			SALE_LBHD			SALE_RBHD			SALE_LFTShould			SALE_RFTShould			SALE_LRRShould			SALE_RRRShould			SALE_T10			SALE_STRN			SALE_TRUN			SALE_LSHO			SALE_LUPA			SALE_LELB			SALE_LFRM			SALE_LWRA			SALE_LWRB			SALE_LFIN			SALE_RSHO			SALE_RUPA			SALE_RELB			SALE_RFRM			SALE_RWRB			SALE_RFIN			SALE_LFWT			SALE_RFWT			SALE_LBWT			SALE_RBWT			SALE_LTHI			SALE_LKNE			SALE_RWRA			SALE_LSHN			SALE_LANK			SALE_LHEE			SALE_LTOE			SALE_RTHI			SALE_RKNE			SALE_RSHN			SALE_RANK			SALE_RHEE			SALE_RTOE		
		X1	Y1	Z1	X2	Y2	Z2	X3	Y3	Z3	X4	Y4	Z4	X5	Y5	Z5	X6	Y6	Z6	X7	Y7	Z7	X8	Y8	Z8	X9	Y9	Z9	X10	Y10	Z10	X11	Y11	Z11	X12	Y12	Z12	X13	Y13	Z13	X14	Y14	Z14	X15	Y15	Z15	X16	Y16	Z16	X17	Y17	Z17	X18	Y18	Z18	X19	Y19	Z19	X20	Y20	Z20	X21	Y21	Z21	X22	Y22	Z22	X23	Y23	Z23	X24	Y24	Z24	X25	Y25	Z25	X26	Y26	Z26	X27	Y27	Z27	X28	Y28	Z28	X29	Y29	Z29	X30	Y30	Z30	X31	Y31	Z31	X32	Y32	Z32	X33	Y33	Z33	X34	Y34	Z34	X35	Y35	Z35	X36	Y36	Z36	X37	Y37	Z37	X38	Y38	Z38	X39	Y39	Z39	X40	Y40	Z40	X41	Y41	Z41
																																																																																																																												
53	2.733	175.2799	1621.61346	-1701.31165	39.94952	1623.57559	-1699.70795	167.96791	1581.34781	-1829.96582	40.76415	1582.31903	-1821.27243	181.91933	1351.29501	-1728.7886	42.84699	1341.68411	-1711.6716	157.4588	1421.77414	-1833.4166	11.2663	1419.01917	-1805.29892	75.43001	1277.80029	-1908.15308	114.79304	1268.14964	-1681.73538	118.53078	1176.1454	-1655.41962	282.00724	1390.17609	-1812.41898	318.87501	1199.28833	-1902.45865	302.73165	1097.8627	-1947.72949	347.42348	991.3205	-1957.59506	323.77155	835.82466	-1908.302	368.35865	844.45404	-1969.36981	385.65636	793.18428	-1932.79007	-70.86193	1377.83646	-1752.65442	-117.94852	1155.0795	-1827.59384	-136.55935	1050.84335	-1785.61218	-131.44577	938.62503	-1806.16028	-142.31059	798.81317	-1769.66736	-136.89105	752.49748	-1718.4938	240.53925	954.6933	-1789.49387	-38.9773	926.93985	-1807.45453	187.17705	1020.36362	-1953.74878	12.40225	1019.71855	-1958.75092	249.16615	647.45399	-1824.49371	213.63811	538.19874	-1665.19455	-84.6019	805.48462	-1723.34457	208.1613	332.36977	-1620.35583	205.64604	141.22945	-1631.59195	168.17739	76.25596	-1684.42429	170.42517	131.78914	-1497.60056	-18.97501	714.71519	-2014.64691	1.90171	536.35864	-1956.40411	60.56742	356.20743	-2018.37387	29.67864	123.02058	-2135.71411	44.78408	78.56057	-2027.26715	80.2232	71.71449	-2218.04657
54	2.767	175.63036	1610.522	-1667.41653	40.70202	1612.67288	-1665.45547	168.44017	1572.06024	-1796.41602	41.24385	1573.11539	-1787.70523	182.25193	1340.5304	-1697.91855	42.31891	1330.65155	-1681.62872	157.87082	1411.44989	-1802.46216	11.30685	1408.43719	-1775.14038	76.21583	1267.56073	-1878.07968	114.28291	1256.95953	-1651.98654	117.91481	1164.97658	-1625.81909	282.22618	1379.9472	-1781.66367	318.10709	1191.3102	-1875.86594	302.07399	1090.75882	-1923.11539	346.5506	985.90263	-1939.46335	324.13635	827.75673	-1898.24936	367.12978	839.96849	-1959.7966	385.1749	786.69998	-1926.37543	-71.20375	1366.68213	-1723.34641	-117.9319	1142.69409	-1797.45056	-136.47363	1039.05312	-1753.86292	-131.06032	926.37039	-1772.08084	-140.74972	787.23701	-1732.23618	-135.60379	743.59001	-1679.09454	241.39147	943.33427	-1759.51706	-37.7008	918.79791	-1777.35855	189.56238	1009.66019	-1924.14322	13.72547	1011.69228	-1929.52911	248.81733	635.2552	-1793.8176	214.67196	529.71485	-1630.99304	-82.85449	795.59273	-1686.43127	209.68414	333.25363	-1567.32864	209.78086	142.41764	-1557.64801	176.33081	71.50129	-1605.23849	169.21219	143.77072	-1424.13177	-19.47873	713.76778	-1991.33072	-0.59181	533.84991	-1941.02219	58.70416	356.28151	-2009.90051	28.27532	126.86009	-2134.41879	43.95737	78.19614	-2027.09122	78.94693	78.56427	-2217.3381
55	2.8	177.05732	1601.25916	-1631.84235	42.29846	1603.58078	-1629.67682	169.85905	1564.84924	-1761.32584	42.68441	1565.98404	-1752.53555	183.53725	1330.76691	-1664.6077	42.8538	1321.80389	-1649.2012	159.82569	1402.49557	-1769.40765	12.74543	1400.06378	-1742.76276	78.18594	1259.08348	-1845.46341	114.62964	1247.62558	-1619.5343	117.57593	1155.65445	-1593.59573	283.89181	1370.4924	-1748.34885	318.9266	1183.11234	-1845.22903	302.97119	1082.95914	-1893.13095	346.72867	980.42404	-1915.82825	324.32594	820.30807	-1884.82117	366.25137	836.25816	-1946.08902	384.82353	780.91507	-1916.64642	-70.44121	1357.80914	-1692.00119	-116.21214	1132.84279	-1766.29379	-135.72769	1029.59763	-1721.51031	-129.67608	916.54816	-1737.60498	-138.82358	778.18222	-1694.72839	-134.59724	736.80458	-1639.84741	241.75274	934.28825	-1726.18652	-37.64236	913.46329	-1745.65536	192.27215	999.41414	-1892.27798	15.95598	1003.88794	-1898.54431	250.74419	624.89868	-1757.64771	217.28605	522.13737	-1592.7832	-81.30775	788.07953	-1648.44238	212.3595	331.40759	-1520.73578	212.05219	141.35905	-1501.71036	178.44538	68.73992	-1545.89844	172.71254	148.2271	-1367.53342	-19.61334	713.7146	-1963.20328	-1.95377	532.71088	-1920.3154	57.56013	357.52968	-1997.11929	26.68557	133.39978	-2131.54251	42.788	77.76269	-2026.51672	77.72753	89.07814	-2215.69489
56	2.833	179.72248	1595.37827	-1594.83856	44.92955	1597.70569	-1592.40616	172.43202	1560.41534	-1724.71832	45.18661	1561.48575	-1715.81085	185.73641	1324.09988	-1628.65662	44.96275	1316.28845	-1613.68423	163.52215	1396.95679	-1733.23273	16.02772	1395.42221	-1707.31522	81.44492	1254.30756	-1810.15869	115.826	1241.33736	-1584.08234	117.92027	1149.20319	-1558.53546	287.33175	1363.70148	-1711.40594	321.69685	1175.84053	-1808.59528	305.34031	1076.3707	-1857.20749	347.91729	976.8927	-1886.14212	324.98882	814.75647	-1865.31754	366.082	834.98459	-1926.0701	384.50336	777.4826	-1901.24435	-67.90242	1353.1929	-1657.33231	-113.49632	1128.34183	-1732.6619	-134.17459	1025.07156	-1687.73331	-127.65528	911.5387	-1702.27722	-136.24985	773.55797	-1657.341	-133.35629	733.71834	-1601.69144	242.08384	929.18587	-1687.83859	-37.70859	909.30603	-1709.5903	194.40479	992.25342	-1855.39063	18.33979	997.25197	-1862.57278	250.39431	620.01888	-1715.06226	220.75188	518.1707	-1550.50613	-80.00486	784.81621	-1610.19699	215.7358	325.60341	-1481.7572	213.60651	135.10499	-1467.10068	177.85091	63.66319	-1512.18155	179.16775	138.80422	-1331.61896	-17.30077	714.39346	-1930.14709	-1.96483	532.51099	-1894.23294	57.60224	359.74518	-1979.67941	25.91426	143.30927	-2126.99692	41.20866	77.24395	-2025.9552	77.40379	104.92841	-2212.48352
57	2.867	183.34909	1593.63602	-1556.59241	48.83757	1595.51346	-1554.05685	176.14368	1559.49921	-1686.7363	48.88685	1560.09598	-1677.75009	189.86935	1321.89377	-1589.86023	48.75284	1315.38071	-1575.17868	168.56297	1394.32922	-1695.0856	21.0172	1394.24988	-1669.65576	85.40878	1251.94168	-1771.59119	118.77224	1239.81262	-1545.08102	119.90192	1147.8521	-1518.87405	292.07962	1360.33005	-1672.4585	326.01105	1171.34827	-1768.1131	308.52192	1072.36443	-1816.64063	349.91394	975.66284	-1850.03952	327.30408	812.5425	-1836.10168	367.1003	835.99594	-1897.13501	384.64874	776.52786	-1876.86844	-63.39571	1353.12347	-1619.56238	-110.0014	1129.56383	-1696.33713	-131.79517	1025.80826	-1652.45499	-125.37555	911.86806	-1666.20605	-134.33415	774.28589	-1620.46692	-131.67636	734.56383	-1564.44275	242.88866	926.08063	-1643.54385	-36.72704	905.02045	-1667.71408	196.09497	989.05251	-1811.64856	20.81614	993.05183	-1819.37988	250.20815	619.21696	-1669.84558	223.64349	516.24405	-1507.69928	-78.47338	785.86342	-1572.50214	216.87691	315.24418	-1452.54745	213.41999	124.0186	-1454.14474	175.9354	57.36967	-1503.93539	181.84305	117.33278	-1318.6116	-12.7687	715.52917	-1892.18109	-0.86694	533.16742	-1863.12866	58.26255	362.94613	-1957.11823	25.32331	156.99038	-2119.42093	39.40227	76.59689	-2025.05569	77.08197	127.0868	-2206.36337
58	2.9	187.82661	1597.05475	-1517.42569	53.27829	1597.6059	-1515.04349	180.84824	1563.09677	-1647.55096	53.60473	1562.65793	-1638.81836	195.6456	1323.84308	-1547.94556	54.20796	1319.83322	-1533.16193	175.00965	1394.31366	-1654.67987	27.23253	1396.58127	-1629.83185	90.20771	1251.26602	-1728.48724	123.03828	1243.68591	-1501.62369	123.10675	1152.44484	-1473.43658	297.90005	1359.69391	-1631.42914	330.16609	1170.5011	-1726.19812	311.59851	1071.60538	-1774.52072	352.99545	975.38582	-1808.68484	329.82452	811.74644	-1796.84189	369.67113	836.70143	-1857.28531	385.69748	775.95444	-1840.04791	-58.13575	1357.18826	-1579.30511	-105.86357	1134.90967	-1657.50275	-128.99275	1030.73265	-1615.4071	-123.30783	916.60995	-1629.19556	-132.70594	778.83217	-1583.75397	-129.73326	738.84918	-1527.91641	243.71286	925.85037	-1597.48413	-34.75365	901.81282	-1621.34323	198.90696	992.03171	-1763.76617	22.16737	992.16202	-1771.07346	251.48712	620.4887	-1627.4852	223.91657	513.65742	-1466.78024	-76.65989	790.31807	-1535.73166	214.81125	311.88206	-1423.74649	210.40089	123.13993	-1437.94373	173.42371	63.75519	-1495.72952	176.93338	97.12121	-1301.92917	-9.41702	716.94443	-1848.90579	1.67913	534.65405	-1824.91333	59.53997	367.40963	-1928.41522	23.51107	174.53535	-2106.17264	38.14185	75.86513	-2022.9509	74.91796	154.61317	-2193.52875
59	2.933	191.99244	1603.72543	-1477.64648	57.60863	1603.27957	-1475.71396	185.78369	1568.63358	-1607.52441	58.53083	1567.314	-1599.21417	201.00668	1328.87466	-1503.78098	59.75501	1326.64917	-1487.4588	180.11189	1397.80426	-1610.73181	33.13569	1402.1875	-1585.09216	93.87398	1254.43634	-1681.48621	128.5241	1250.3775	-1455.20477	128.11241	1159.59267	-1425.16708	303.29073	1362.83646	-1587.99713	333.78288	1172.77168	-1681.23428	315.50848	1073.10707	-1728.13782	357.06833	976.1068	-1760.59692	332.63783	812.5177	-1747.04483	373.54259	837.0031	-1807.21481	387.99576	775.71754	-1790.33875	-52.48211	1364.48471	-1533.68134	-100.79241	1144.9894	-1616.3176	-125.98504	1040.01549	-1576.4682	-120.95855	925.8287	-1591.97754	-130.81569	787.28905	-1548.25012	-128.38146	746.79901	-1492.84393	247.04342	931.21239	-1552.1521	-30.64932	902.07962	-1571.13342	197.70468	999.75151	-1716.53717	22.15725	996.34079	-1720.56122	254.16622	627.60204	-1586.78711	221.87986	518.60603	-1429.16626	-75.11237	797.95647	-1499.8288	213.14062	308.53502	-1400.07034	209.33472	120.99204	-1429.25278	173.49466	66.99408	-1492.15912	173.4745	87.56262	-1298.33176	-6.92569	717.63092	-1800.45502	4.69691	533.43739	-1774.06219	59.97541	367.93205	-1889.38797	18.82148	193.59344	-2083.7207	37.45086	75.24211	-2019.50226	68.38945	186.6851	-2171.28876
60	2.967	195.44907	1611.67969	-1437.62146	61.15013	1610.39352	-1436.42578	190.24132	1574.6582	-1567.04681	63.04997	1572.38998	-1559.28177	206.30529	1335.90256	-1459.52652	66.16653	1334.11957	-1442.02942	185.1342	1403.54996	-1567.05673	38.49928	1409.17908	-1540.42587	97.40355	1259.83849	-1635.33508	134.72371	1258.46985	-1408.62762	134.48135	1167.76093	-1377.5264	308.42091	1368.65158	-1544.0419	339.19472	1175.8622	-1632.26013	320.43251	1075.12749	-1676.35468	361.61568	977.14584	-1706.32065	336.74267	814.1301	-1687.85263	377.81628	836.51436	-1748.67096	392.07912	775.72693	-1729.90768	-46.47198	1372.67792	-1487.33429	-95.91334	1157.43416	-1573.40027	-122.45965	1050.89272	-1537.59979	-118.57802	936.29326	-1554.95041	-128.5752	796.41296	-1514.30267	-127.6684	755.12276	-1459.47159	250.54989	937.5499	-1507.5946	-26.71399	905.20271	-1521.63773	197.16846	1007.4234	-1670.28229	21.78464	1000.79964	-1671.48758	255.92411	633.51593	-1550.76523	219.37843	518.09029	-1398.5022	-74.0871	806.31332	-1464.57428	210.79927	306.11452	-1381.3147	209.5369	120.25989	-1423.14316	174.5923	68.81546	-1489.99557	172.754	83.11978	-1295.11185	-4.6018	711.07246	-1745.35568	9.72277	525.54344	-1708.41309	60.09751	361.79234	-1836.8074	13.38355	211.6293	-2048.0899	36.54687	77.89898	-2008.19031	60.59113	220.15917	-2134.96536
